<?xml version="1.0" encoding="UTF-8"?>
<!DOCTYPE svg PUBLIC "-//W3C//DTD SVG 1.1//EN" "http://www.w3.org/Graphics/SVG/1.1/DTD/svg11.dtd">
<svg version="1.1" id="Layer_1" xmlns="http://www.w3.org/2000/svg" xmlns:xlink="http://www.w3.org/1999/xlink" x="0px" y="0px" width="16px" height="16px" viewBox="0 0 16 16" enable-background="new 0 0 16 16" xml:space="preserve">
  <g id="icon">
    <path d="M5.7694,15.9842c-1.733,0,-2.7957,-1.0641,-2.9497,-2.1153c-0.1352,-0.9221,0.3977,-2.1047,2.2975,-2.6615c0.3239,-0.1238,0.8166,-0.1976,1.3209,-0.1976c0.2312,0,0.6303,0.0162,0.9511,0.1129C7.026,9.964,4.661,1.8024,4.3873,0.8575c-0.0386,-0.1331,-0.01,-0.2697,0.0748,-0.3716c0.0697,-0.0837,0.4417,-0.5008,0.9272,-0.5008c0.2121,0,0.4103,0.0803,0.5732,0.2321l0.022,0.0205l0.0189,0.0239C7.0129,1.5319,8.3,2.0864,9.5447,2.6226c1.1082,0.4774,2.1548,0.9283,2.8515,1.8425c0.7726,1.0137,0.9811,2.4301,0.6562,4.4577c-0.0319,0.2017,-0.2049,0.3483,-0.4113,0.3483c-0.1146,0,-0.2252,-0.0473,-0.3037,-0.1298c-0.0792,-0.0834,-0.1201,-0.1969,-0.1122,-0.3114c0.2195,-3.2547,-1.7189,-3.8449,-3.5934,-4.4157c-0.454,-0.1382,-0.89,-0.271,-1.2751,-0.4422c0.8157,2.7298,2.5247,8.4527,2.5247,8.4527l0.0043,0.0169c0.0144,0.0702,0.1169,0.6318,-0.1798,1.3232c-0.2662,0.6205,-0.9213,1.4691,-2.5299,1.9878C6.6998,15.9063,6.2266,15.9842,5.7694,15.9842z" fill-rule="evenodd" fill="#797979"/>
  </g>
</svg>