<?xml version="1.0" encoding="UTF-8"?>
<!DOCTYPE svg PUBLIC "-//W3C//DTD SVG 1.1//EN" "http://www.w3.org/Graphics/SVG/1.1/DTD/svg11.dtd">
<svg version="1.1" id="Layer_1" xmlns="http://www.w3.org/2000/svg" xmlns:xlink="http://www.w3.org/1999/xlink" x="0px" y="0px" width="16px" height="16px" viewBox="0 0 16 16" enable-background="new 0 0 16 16" xml:space="preserve">
  <g id="icon">
    <path d="M15.075,3.875c-0.317,-0.317,-2.842,-2.842,-3.034,-3.034S11.583,0.5,11.117,0.5S3.1,0.5,3.1,0.5c-0.331,0,-0.6,0.269,-0.6,0.6v2.9h6.786c0.945,0,1.714,0.769,1.714,1.714v9.571c0,0.073,-0.006,0.144,-0.015,0.214H14.9c0.331,0,0.6,-0.269,0.6,-0.6c0,0,0,-9.517,0,-9.983S15.392,4.192,15.075,3.875z" fill-rule="evenodd" fill="#FFFFFF"/>
    <path d="M15.429,3.521L12.395,0.488C12.067,0.16,11.649,0,11.117,0H3.1c-0.607,0,-1.1,0.493,-1.1,1.1v2.9h1V1.1c0,-0.055,0.045,-0.1,0.1,-0.1h7.9v3c0,0.473,0.399,0.867,0.798,0.972c0.051,0.018,0.106,0.027,0.164,0.027H15v9.9c0,0.055,-0.045,0.1,-0.1,0.1h-3.9v0.286c0,0.255,-0.058,0.497,-0.158,0.714H14.9c0.607,0,1.1,-0.493,1.1,-1.1V4.917C16,4.324,15.84,3.933,15.429,3.521zM12.045,4c-0.016,-0.009,-0.034,-0.023,-0.045,-0.035V1.507L14.493,4H12.045z" fill="#6D6E71"/>
    <path d="M9.4,5H0.6c-0.331,0,-0.6,0.269,-0.6,0.6v9.8c0,0.331,0.269,0.6,0.6,0.6h8.8c0.331,0,0.6,-0.269,0.6,-0.6V5.6C10,5.269,9.731,5,9.4,5zM2,15H1v-1h1V15zM2,13H1v-1h1V13zM2,11H1v-1h1V11zM2,9H1V8h1V9zM2,7H1V6h1V7zM7,15H3v-4h4V15zM7,10H3V6h4V10zM9,15H8v-1h1V15zM9,13H8v-1h1V13zM9,11H8v-1h1V11zM9,9H8V8h1V9zM9,7H8V6h1V7z" fill="#217346"/>
    <path d="M7,10H3V6h4V10zM7,11H3v4h4V11zM2,6H1v1h1V6zM2,8H1v1h1V8zM2,10H1v1h1V10zM2,12H1v1h1V12zM2,14H1v1h1V14zM9,6H8v1h1V6zM9,8H8v1h1V8zM9,10H8v1h1V10zM9,12H8v1h1V12zM9,14H8v1h1V14z" fill="#FFFFFF"/>
  </g>
</svg>