<?xml version="1.0" encoding="UTF-8"?>
<!DOCTYPE svg PUBLIC "-//W3C//DTD SVG 1.1//EN" "http://www.w3.org/Graphics/SVG/1.1/DTD/svg11.dtd">
<svg version="1.1" id="Layer_1" xmlns="http://www.w3.org/2000/svg" xmlns:xlink="http://www.w3.org/1999/xlink" x="0px" y="0px" width="32px" height="32px" viewBox="0 0 32 32" enable-background="new 0 0 32 32" xml:space="preserve">
  <g id="icon" style="opacity:0.1">
    <path d="M30.1,7.8c-1.484,-1.484,-5.601,-5.601,-5.9,-5.9c-0.35,-0.35,-0.662,-0.4,-0.9,-0.4S8.4,1.5,8.4,1.5c-0.635,0,-0.9,0.259,-0.9,0.9v8.6h8.286c1.221,0,2.214,0.993,2.214,2.214v13.571c0,1.221,-0.993,2.214,-2.214,2.214H7.5v0.6c0,0.641,0.265,0.9,0.9,0.9h21.2c0.635,0,0.9,-0.259,0.9,-0.9c0,0,0,-20.488,0,-20.8C30.5,8.35,30.353,8.053,30.1,7.8z" fill="#FFFFFF"/>
    <path d="M30.454,7.446l-5.9,-5.9C24.186,1.179,23.776,1,23.3,1H8.4c-0.916,0,-1.4,0.484,-1.4,1.4v8.6h1V2.4c0,-0.363,0.037,-0.4,0.4,-0.4h14.6v5.7c0,0.717,0.583,1.3,1.3,1.3h5.7v20.6c0,0.363,-0.037,0.4,-0.4,0.4H8.4c-0.363,0,-0.4,-0.037,-0.4,-0.4v-0.6H7v0.6c0,0.916,0.484,1.4,1.4,1.4h21.2c0.916,0,1.4,-0.484,1.4,-1.4V8.8C31,8.249,30.826,7.819,30.454,7.446zM24.3,8c-0.165,0,-0.3,-0.135,-0.3,-0.3V2.407L29.593,8H24.3z" fill="#6D6E71"/>
    <path d="M16.4,12H1.6c-0.331,0,-0.6,0.269,-0.6,0.6v14.8c0,0.331,0.269,0.6,0.6,0.6h14.8c0.331,0,0.6,-0.269,0.6,-0.6V12.6C17,12.269,16.731,12,16.4,12zM4,27H2v-2h2V27zM4,24H2v-2h2V24zM4,21H2v-2h2V21zM4,18H2v-2h2V18zM4,15H2v-2h2V15zM13,27H5v-6h8V27zM13,19H5v-6h8V19zM16,27h-2v-2h2V27zM16,24h-2v-2h2V24zM16,21h-2v-2h2V21zM16,18h-2v-2h2V18zM16,15h-2v-2h2V15z" fill="#217346"/>
    <path d="M13,19H5v-6h8V19zM13,21H5v6h8V21zM4,13H2v2h2V13zM4,16H2v2h2V16zM4,19H2v2h2V19zM4,22H2v2h2V22zM4,25H2v2h2V25zM16,13h-2v2h2V13zM16,16h-2v2h2V16zM16,19h-2v2h2V19zM16,22h-2v2h2V22zM16,25h-2v2h2V25z" fill="#FFFFFF"/>
  </g>
</svg>